<mxfile host="app.diagrams.net" modified="2023-05-03T13:31:49.731Z" agent="Mozilla/5.0 (Windows NT 10.0; Win64; x64) AppleWebKit/537.36 (KHTML, like Gecko) Chrome/112.0.0.0 Safari/537.36 Edg/112.0.1722.68" etag="h76tLECAQwT_UK5nvZfG" version="21.2.6" type="github">
  <diagram name="第 1 页" id="dhoNqO2m6MTkpbJS3TuC">
    <mxGraphModel dx="2048" dy="743" grid="1" gridSize="10" guides="0" tooltips="1" connect="1" arrows="1" fold="1" page="1" pageScale="1" pageWidth="827" pageHeight="1169" math="0" shadow="0">
      <root>
        <mxCell id="0" />
        <mxCell id="1" parent="0" />
        <mxCell id="MmNdw_TiOH7eAb8pypjF-38" value="&#xa;&lt;span style=&quot;color: rgba(0, 0, 0, 0); font-family: monospace; font-size: 14px; font-style: normal; font-variant-ligatures: normal; font-variant-caps: normal; font-weight: 400; letter-spacing: normal; orphans: 2; text-align: start; text-indent: 0px; text-transform: none; widows: 2; word-spacing: 0px; -webkit-text-stroke-width: 0px; background-color: rgb(251, 251, 251); text-decoration-thickness: initial; text-decoration-style: initial; text-decoration-color: initial; float: none; display: inline !important;&quot;&gt;%3CmxGraphModel%3E%3Croot%3E%3CmxCell%20id%3D%220%22%2F%3E%3CmxCell%20id%3D%221%22%20parent%3D%220%22%2F%3E&lt;/span&gt;" style="rounded=1;whiteSpace=wrap;html=1;fillColor=#C2C2C2;opacity=50;strokeColor=none;glass=0;shadow=0;fontSize=14;" vertex="1" parent="1">
          <mxGeometry x="440" y="1770" width="410" height="370" as="geometry" />
        </mxCell>
        <mxCell id="MmNdw_TiOH7eAb8pypjF-37" value="&#xa;&lt;span style=&quot;color: rgba(0, 0, 0, 0); font-family: monospace; font-size: 14px; font-style: normal; font-variant-ligatures: normal; font-variant-caps: normal; font-weight: 400; letter-spacing: normal; orphans: 2; text-align: start; text-indent: 0px; text-transform: none; widows: 2; word-spacing: 0px; -webkit-text-stroke-width: 0px; background-color: rgb(251, 251, 251); text-decoration-thickness: initial; text-decoration-style: initial; text-decoration-color: initial; float: none; display: inline !important;&quot;&gt;%3CmxGraphModel%3E%3Croot%3E%3CmxCell%20id%3D%220%22%2F%3E%3CmxCell%20id%3D%221%22%20parent%3D%220%22%2F%3E&lt;/span&gt;" style="rounded=1;whiteSpace=wrap;html=1;fillColor=#C2C2C2;opacity=50;strokeColor=none;glass=0;shadow=0;fontSize=14;" vertex="1" parent="1">
          <mxGeometry x="220" y="1770" width="200" height="370" as="geometry" />
        </mxCell>
        <mxCell id="7tqpkA7ohuQxdTKl_h8J-32" value="" style="rounded=1;whiteSpace=wrap;html=1;fillColor=#C2C2C2;opacity=50;strokeColor=none;glass=0;shadow=0;fontSize=14;" parent="1" vertex="1">
          <mxGeometry x="182" y="212" width="500" height="240" as="geometry" />
        </mxCell>
        <mxCell id="7tqpkA7ohuQxdTKl_h8J-29" value="" style="rounded=1;whiteSpace=wrap;html=1;fillColor=#C2C2C2;opacity=50;strokeColor=none;glass=0;shadow=0;fontSize=14;" parent="1" vertex="1">
          <mxGeometry x="182" y="482" width="500" height="300" as="geometry" />
        </mxCell>
        <mxCell id="7tqpkA7ohuQxdTKl_h8J-3" value="" style="edgeStyle=orthogonalEdgeStyle;rounded=0;orthogonalLoop=1;jettySize=auto;html=1;fontFamily=Helvetica;arcSize=20;fontSize=14;" parent="1" source="7tqpkA7ohuQxdTKl_h8J-1" target="7tqpkA7ohuQxdTKl_h8J-2" edge="1">
          <mxGeometry relative="1" as="geometry" />
        </mxCell>
        <mxCell id="7tqpkA7ohuQxdTKl_h8J-1" value="原始代码" style="shape=parallelogram;perimeter=parallelogramPerimeter;whiteSpace=wrap;html=1;fixedSize=1;fontFamily=Helvetica;arcSize=20;rounded=1;strokeWidth=2;fontSize=14;" parent="1" vertex="1">
          <mxGeometry x="42" y="562" width="120" height="60" as="geometry" />
        </mxCell>
        <mxCell id="7tqpkA7ohuQxdTKl_h8J-5" value="" style="edgeStyle=orthogonalEdgeStyle;rounded=0;orthogonalLoop=1;jettySize=auto;html=1;fontFamily=Helvetica;arcSize=20;fontSize=14;" parent="1" source="7tqpkA7ohuQxdTKl_h8J-2" target="7tqpkA7ohuQxdTKl_h8J-4" edge="1">
          <mxGeometry relative="1" as="geometry" />
        </mxCell>
        <mxCell id="7tqpkA7ohuQxdTKl_h8J-2" value="通过srcML工具转换为xml代码" style="whiteSpace=wrap;html=1;fontFamily=Helvetica;arcSize=20;rounded=1;fontSize=14;" parent="1" vertex="1">
          <mxGeometry x="202" y="562" width="120" height="60" as="geometry" />
        </mxCell>
        <mxCell id="7tqpkA7ohuQxdTKl_h8J-7" value="Y" style="edgeStyle=orthogonalEdgeStyle;rounded=0;orthogonalLoop=1;jettySize=auto;html=1;fontFamily=Helvetica;arcSize=20;fontSize=14;" parent="1" source="7tqpkA7ohuQxdTKl_h8J-4" target="7tqpkA7ohuQxdTKl_h8J-6" edge="1">
          <mxGeometry relative="1" as="geometry" />
        </mxCell>
        <mxCell id="7tqpkA7ohuQxdTKl_h8J-10" value="N" style="edgeStyle=orthogonalEdgeStyle;rounded=0;orthogonalLoop=1;jettySize=auto;html=1;fontFamily=Helvetica;arcSize=20;fontSize=14;" parent="1" source="7tqpkA7ohuQxdTKl_h8J-4" target="7tqpkA7ohuQxdTKl_h8J-9" edge="1">
          <mxGeometry relative="1" as="geometry" />
        </mxCell>
        <mxCell id="7tqpkA7ohuQxdTKl_h8J-4" value="符合&lt;br style=&quot;font-size: 14px;&quot;&gt;安全规则拦截&lt;br style=&quot;font-size: 14px;&quot;&gt;条件？" style="rhombus;whiteSpace=wrap;html=1;fontFamily=Helvetica;arcSize=20;rounded=1;fontSize=14;" parent="1" vertex="1">
          <mxGeometry x="362" y="547" width="100" height="90" as="geometry" />
        </mxCell>
        <mxCell id="7tqpkA7ohuQxdTKl_h8J-27" style="edgeStyle=orthogonalEdgeStyle;rounded=1;orthogonalLoop=1;jettySize=auto;html=1;entryX=0.5;entryY=0;entryDx=0;entryDy=0;exitX=0.5;exitY=0;exitDx=0;exitDy=0;fontSize=14;" parent="1" source="7tqpkA7ohuQxdTKl_h8J-6" target="7tqpkA7ohuQxdTKl_h8J-4" edge="1">
          <mxGeometry relative="1" as="geometry">
            <Array as="points">
              <mxPoint x="582" y="522" />
              <mxPoint x="412" y="522" />
            </Array>
          </mxGeometry>
        </mxCell>
        <mxCell id="7tqpkA7ohuQxdTKl_h8J-6" value="按照规范进行优化" style="whiteSpace=wrap;html=1;fontFamily=Helvetica;arcSize=20;rounded=1;fontSize=14;" parent="1" vertex="1">
          <mxGeometry x="522" y="562" width="120" height="60" as="geometry" />
        </mxCell>
        <mxCell id="7tqpkA7ohuQxdTKl_h8J-14" style="edgeStyle=orthogonalEdgeStyle;rounded=0;orthogonalLoop=1;jettySize=auto;html=1;entryX=0.5;entryY=0;entryDx=0;entryDy=0;fontFamily=Helvetica;arcSize=20;fontSize=14;" parent="1" source="7tqpkA7ohuQxdTKl_h8J-9" target="7tqpkA7ohuQxdTKl_h8J-13" edge="1">
          <mxGeometry relative="1" as="geometry" />
        </mxCell>
        <mxCell id="7tqpkA7ohuQxdTKl_h8J-15" style="edgeStyle=orthogonalEdgeStyle;orthogonalLoop=1;jettySize=auto;html=1;entryX=1;entryY=0.5;entryDx=0;entryDy=0;fontFamily=Helvetica;rounded=1;fontSize=14;" parent="1" source="7tqpkA7ohuQxdTKl_h8J-9" target="7tqpkA7ohuQxdTKl_h8J-18" edge="1">
          <mxGeometry relative="1" as="geometry">
            <mxPoint x="782" y="232" as="targetPoint" />
            <Array as="points">
              <mxPoint x="772" y="732" />
              <mxPoint x="772" y="262" />
            </Array>
          </mxGeometry>
        </mxCell>
        <mxCell id="7tqpkA7ohuQxdTKl_h8J-9" value="通过srcML工具转换为原语言" style="whiteSpace=wrap;html=1;fontFamily=Helvetica;arcSize=20;rounded=1;fontSize=14;" parent="1" vertex="1">
          <mxGeometry x="352" y="682" width="120" height="60" as="geometry" />
        </mxCell>
        <mxCell id="7tqpkA7ohuQxdTKl_h8J-13" value="&lt;font style=&quot;font-size: 14px;&quot;&gt;优化&lt;/font&gt;&lt;font style=&quot;font-size: 14px;&quot;&gt;代码&lt;/font&gt;" style="shape=parallelogram;perimeter=parallelogramPerimeter;whiteSpace=wrap;html=1;fixedSize=1;fontFamily=Helvetica;arcSize=20;rounded=1;strokeWidth=2;fontSize=14;" parent="1" vertex="1">
          <mxGeometry x="352" y="812" width="120" height="60" as="geometry" />
        </mxCell>
        <mxCell id="7tqpkA7ohuQxdTKl_h8J-34" style="edgeStyle=orthogonalEdgeStyle;rounded=0;orthogonalLoop=1;jettySize=auto;html=1;strokeColor=none;" parent="1" source="7tqpkA7ohuQxdTKl_h8J-16" target="7tqpkA7ohuQxdTKl_h8J-4" edge="1">
          <mxGeometry relative="1" as="geometry" />
        </mxCell>
        <mxCell id="7tqpkA7ohuQxdTKl_h8J-16" value="总结安全规则" style="whiteSpace=wrap;html=1;fontFamily=Helvetica;arcSize=20;rounded=1;fontSize=14;" parent="1" vertex="1">
          <mxGeometry x="352" y="362" width="120" height="60" as="geometry" />
        </mxCell>
        <mxCell id="7tqpkA7ohuQxdTKl_h8J-17" value="总结规范优化" style="whiteSpace=wrap;html=1;fontFamily=Helvetica;arcSize=20;rounded=1;fontSize=14;" parent="1" vertex="1">
          <mxGeometry x="522" y="362" width="120" height="60" as="geometry" />
        </mxCell>
        <mxCell id="7tqpkA7ohuQxdTKl_h8J-19" style="edgeStyle=orthogonalEdgeStyle;rounded=1;orthogonalLoop=1;jettySize=auto;html=1;entryX=0.5;entryY=0;entryDx=0;entryDy=0;fontFamily=Helvetica;fontSize=14;" parent="1" source="7tqpkA7ohuQxdTKl_h8J-18" target="7tqpkA7ohuQxdTKl_h8J-16" edge="1">
          <mxGeometry relative="1" as="geometry" />
        </mxCell>
        <mxCell id="7tqpkA7ohuQxdTKl_h8J-20" style="edgeStyle=orthogonalEdgeStyle;rounded=1;orthogonalLoop=1;jettySize=auto;html=1;entryX=0.5;entryY=0;entryDx=0;entryDy=0;fontFamily=Helvetica;fontSize=14;" parent="1" source="7tqpkA7ohuQxdTKl_h8J-18" target="7tqpkA7ohuQxdTKl_h8J-17" edge="1">
          <mxGeometry relative="1" as="geometry" />
        </mxCell>
        <mxCell id="7tqpkA7ohuQxdTKl_h8J-18" value="总结分析安全编码规范" style="rounded=1;whiteSpace=wrap;html=1;fontFamily=Helvetica;fontSize=14;" parent="1" vertex="1">
          <mxGeometry x="422" y="232" width="140" height="60" as="geometry" />
        </mxCell>
        <mxCell id="7tqpkA7ohuQxdTKl_h8J-31" value="基于安全编码规范进行代码优化" style="text;html=1;strokeColor=none;fillColor=none;align=center;verticalAlign=middle;whiteSpace=wrap;rounded=0;strokeWidth=2;fontSize=14;fontStyle=1" parent="1" vertex="1">
          <mxGeometry x="192" y="732" width="120" height="30" as="geometry" />
        </mxCell>
        <mxCell id="7tqpkA7ohuQxdTKl_h8J-33" value="总结安全编码规范用于代码优化" style="text;html=1;strokeColor=none;fillColor=none;align=center;verticalAlign=middle;whiteSpace=wrap;rounded=0;strokeWidth=2;fontSize=14;fontStyle=1" parent="1" vertex="1">
          <mxGeometry x="202" y="242" width="120" height="30" as="geometry" />
        </mxCell>
        <mxCell id="7tqpkA7ohuQxdTKl_h8J-42" value="" style="endArrow=none;dashed=1;html=1;dashPattern=1 3;strokeWidth=2;rounded=0;entryX=0.5;entryY=1;entryDx=0;entryDy=0;exitX=0.5;exitY=0;exitDx=0;exitDy=0;" parent="1" source="7tqpkA7ohuQxdTKl_h8J-4" target="7tqpkA7ohuQxdTKl_h8J-16" edge="1">
          <mxGeometry width="50" height="50" relative="1" as="geometry">
            <mxPoint x="371" y="472" as="sourcePoint" />
            <mxPoint x="421" y="422" as="targetPoint" />
          </mxGeometry>
        </mxCell>
        <mxCell id="7tqpkA7ohuQxdTKl_h8J-43" value="" style="endArrow=none;dashed=1;html=1;dashPattern=1 3;strokeWidth=2;rounded=0;entryX=0.5;entryY=1;entryDx=0;entryDy=0;exitX=0.5;exitY=0;exitDx=0;exitDy=0;" parent="1" source="7tqpkA7ohuQxdTKl_h8J-6" target="7tqpkA7ohuQxdTKl_h8J-17" edge="1">
          <mxGeometry width="50" height="50" relative="1" as="geometry">
            <mxPoint x="536" y="593" as="sourcePoint" />
            <mxPoint x="586" y="543" as="targetPoint" />
          </mxGeometry>
        </mxCell>
        <mxCell id="MmNdw_TiOH7eAb8pypjF-2" value="主程序控制代码模块" style="whiteSpace=wrap;html=1;fontFamily=Helvetica;arcSize=20;rounded=1;fontSize=14;" vertex="1" parent="1">
          <mxGeometry x="283" y="1253" width="171" height="59" as="geometry" />
        </mxCell>
        <mxCell id="MmNdw_TiOH7eAb8pypjF-3" value="代码规范优化模块" style="whiteSpace=wrap;html=1;fontFamily=Helvetica;arcSize=20;rounded=1;fontSize=14;" vertex="1" parent="1">
          <mxGeometry x="215" y="1555" width="171" height="59" as="geometry" />
        </mxCell>
        <mxCell id="MmNdw_TiOH7eAb8pypjF-4" value="数据存储模块" style="whiteSpace=wrap;html=1;fontFamily=Helvetica;arcSize=20;rounded=1;fontSize=14;" vertex="1" parent="1">
          <mxGeometry x="275" y="1400" width="171" height="59" as="geometry" />
        </mxCell>
        <mxCell id="MmNdw_TiOH7eAb8pypjF-7" value="" style="rounded=1;whiteSpace=wrap;html=1;fillColor=#C2C2C2;opacity=50;strokeColor=none;glass=0;shadow=0;fontSize=14;" vertex="1" parent="1">
          <mxGeometry x="10" y="1770" width="200" height="370" as="geometry" />
        </mxCell>
        <mxCell id="MmNdw_TiOH7eAb8pypjF-24" value="" style="edgeStyle=orthogonalEdgeStyle;rounded=0;orthogonalLoop=1;jettySize=auto;html=1;fontSize=14;" edge="1" parent="1" source="MmNdw_TiOH7eAb8pypjF-9" target="MmNdw_TiOH7eAb8pypjF-23">
          <mxGeometry relative="1" as="geometry" />
        </mxCell>
        <mxCell id="MmNdw_TiOH7eAb8pypjF-9" value="原始代码" style="shape=parallelogram;perimeter=parallelogramPerimeter;whiteSpace=wrap;html=1;fixedSize=1;fontFamily=Helvetica;arcSize=20;rounded=1;strokeWidth=2;fontSize=14;" vertex="1" parent="1">
          <mxGeometry x="50" y="1806" width="119" height="60" as="geometry" />
        </mxCell>
        <mxCell id="MmNdw_TiOH7eAb8pypjF-29" value="N" style="edgeStyle=orthogonalEdgeStyle;rounded=1;orthogonalLoop=1;jettySize=auto;html=1;entryX=1;entryY=0.5;entryDx=0;entryDy=0;fontSize=14;" edge="1" parent="1" source="MmNdw_TiOH7eAb8pypjF-14" target="MmNdw_TiOH7eAb8pypjF-18">
          <mxGeometry relative="1" as="geometry">
            <Array as="points">
              <mxPoint x="600" y="2058" />
            </Array>
          </mxGeometry>
        </mxCell>
        <mxCell id="MmNdw_TiOH7eAb8pypjF-33" value="Y" style="edgeStyle=orthogonalEdgeStyle;rounded=0;orthogonalLoop=1;jettySize=auto;html=1;fontSize=14;" edge="1" parent="1" source="MmNdw_TiOH7eAb8pypjF-14" target="MmNdw_TiOH7eAb8pypjF-32">
          <mxGeometry relative="1" as="geometry" />
        </mxCell>
        <mxCell id="MmNdw_TiOH7eAb8pypjF-14" value="符合&lt;br style=&quot;font-size: 14px;&quot;&gt;安全规则拦截&lt;br style=&quot;font-size: 14px;&quot;&gt;条件？" style="rhombus;whiteSpace=wrap;html=1;fontFamily=Helvetica;arcSize=20;rounded=1;fontSize=14;" vertex="1" parent="1">
          <mxGeometry x="550" y="1950" width="100" height="90" as="geometry" />
        </mxCell>
        <mxCell id="MmNdw_TiOH7eAb8pypjF-25" style="edgeStyle=orthogonalEdgeStyle;rounded=0;orthogonalLoop=1;jettySize=auto;html=1;fontSize=14;" edge="1" parent="1" source="MmNdw_TiOH7eAb8pypjF-18" target="MmNdw_TiOH7eAb8pypjF-19">
          <mxGeometry relative="1" as="geometry" />
        </mxCell>
        <mxCell id="MmNdw_TiOH7eAb8pypjF-18" value="通过srcML工具转换为原语言" style="whiteSpace=wrap;html=1;fontFamily=Helvetica;arcSize=20;rounded=1;fontSize=14;" vertex="1" parent="1">
          <mxGeometry x="249" y="2028" width="120" height="60" as="geometry" />
        </mxCell>
        <mxCell id="MmNdw_TiOH7eAb8pypjF-19" value="&lt;font style=&quot;font-size: 14px;&quot;&gt;优化&lt;/font&gt;&lt;font style=&quot;font-size: 14px;&quot;&gt;代码&lt;/font&gt;" style="shape=parallelogram;perimeter=parallelogramPerimeter;whiteSpace=wrap;html=1;fixedSize=1;fontFamily=Helvetica;arcSize=20;rounded=1;strokeWidth=2;fontSize=14;" vertex="1" parent="1">
          <mxGeometry x="50" y="2028" width="120" height="60" as="geometry" />
        </mxCell>
        <mxCell id="MmNdw_TiOH7eAb8pypjF-20" value="&lt;b style=&quot;font-size: 14px;&quot;&gt;&lt;span style=&quot;font-size: 14px; line-height: 150%;&quot;&gt;主程序控制代码模块&lt;/span&gt;&lt;/b&gt;" style="text;html=1;strokeColor=none;fillColor=none;align=center;verticalAlign=middle;whiteSpace=wrap;rounded=0;strokeWidth=2;fontSize=14;fontStyle=1" vertex="1" parent="1">
          <mxGeometry x="240" y="2110" width="160" height="30" as="geometry" />
        </mxCell>
        <mxCell id="MmNdw_TiOH7eAb8pypjF-27" value="" style="edgeStyle=orthogonalEdgeStyle;rounded=0;orthogonalLoop=1;jettySize=auto;html=1;fontSize=14;" edge="1" parent="1" source="MmNdw_TiOH7eAb8pypjF-23" target="MmNdw_TiOH7eAb8pypjF-26">
          <mxGeometry relative="1" as="geometry" />
        </mxCell>
        <mxCell id="MmNdw_TiOH7eAb8pypjF-23" value="通过srcML工具转换为xml代码" style="whiteSpace=wrap;html=1;fontSize=14;arcSize=20;rounded=1;strokeWidth=1;" vertex="1" parent="1">
          <mxGeometry x="250" y="1806" width="120" height="60" as="geometry" />
        </mxCell>
        <mxCell id="MmNdw_TiOH7eAb8pypjF-28" style="edgeStyle=orthogonalEdgeStyle;rounded=1;orthogonalLoop=1;jettySize=auto;html=1;entryX=0;entryY=0.5;entryDx=0;entryDy=0;fontSize=14;" edge="1" parent="1" source="MmNdw_TiOH7eAb8pypjF-26" target="MmNdw_TiOH7eAb8pypjF-14">
          <mxGeometry relative="1" as="geometry" />
        </mxCell>
        <mxCell id="MmNdw_TiOH7eAb8pypjF-26" value="&lt;font style=&quot;font-size: 14px;&quot;&gt;调用&lt;/font&gt;规范优化&lt;font style=&quot;font-size: 14px;&quot;&gt;代码&lt;/font&gt;" style="whiteSpace=wrap;html=1;fontSize=14;arcSize=20;rounded=1;strokeWidth=1;" vertex="1" parent="1">
          <mxGeometry x="470" y="1806" width="120" height="60" as="geometry" />
        </mxCell>
        <mxCell id="MmNdw_TiOH7eAb8pypjF-34" style="edgeStyle=orthogonalEdgeStyle;rounded=1;orthogonalLoop=1;jettySize=auto;html=1;exitX=0.5;exitY=0;exitDx=0;exitDy=0;entryX=0.5;entryY=0;entryDx=0;entryDy=0;fontSize=14;" edge="1" parent="1" source="MmNdw_TiOH7eAb8pypjF-32" target="MmNdw_TiOH7eAb8pypjF-14">
          <mxGeometry relative="1" as="geometry">
            <Array as="points">
              <mxPoint x="780" y="1910" />
              <mxPoint x="600" y="1910" />
            </Array>
          </mxGeometry>
        </mxCell>
        <mxCell id="MmNdw_TiOH7eAb8pypjF-32" value="&lt;span style=&quot;color: rgb(0, 0, 0); font-family: Helvetica; font-size: 14px; font-style: normal; font-variant-ligatures: normal; font-variant-caps: normal; font-weight: 400; letter-spacing: normal; orphans: 2; text-align: center; text-indent: 0px; text-transform: none; widows: 2; word-spacing: 0px; -webkit-text-stroke-width: 0px; background-color: rgb(251, 251, 251); text-decoration-thickness: initial; text-decoration-style: initial; text-decoration-color: initial; float: none; display: inline !important;&quot;&gt;按照规范进行优化&lt;/span&gt;" style="whiteSpace=wrap;html=1;fontSize=14;arcSize=20;rounded=1;" vertex="1" parent="1">
          <mxGeometry x="720" y="1965" width="120" height="60" as="geometry" />
        </mxCell>
        <mxCell id="MmNdw_TiOH7eAb8pypjF-39" value="&lt;b&gt;数据存储模块&lt;/b&gt;" style="text;html=1;strokeColor=none;fillColor=none;align=center;verticalAlign=middle;whiteSpace=wrap;rounded=0;strokeWidth=2;fontSize=14;fontStyle=1" vertex="1" parent="1">
          <mxGeometry x="20" y="2100" width="160" height="50" as="geometry" />
        </mxCell>
        <mxCell id="MmNdw_TiOH7eAb8pypjF-41" value="&lt;font style=&quot;font-size: 14px;&quot;&gt;&lt;b style=&quot;font-size: 14px;&quot;&gt;&lt;span style=&quot;font-size: 14px; line-height: 150%;&quot;&gt;代码规范优化模块&lt;/span&gt;&lt;/b&gt;&lt;/font&gt;" style="text;html=1;strokeColor=none;fillColor=none;align=center;verticalAlign=middle;whiteSpace=wrap;rounded=0;strokeWidth=2;fontSize=14;fontStyle=1" vertex="1" parent="1">
          <mxGeometry x="560" y="2100" width="160" height="50" as="geometry" />
        </mxCell>
      </root>
    </mxGraphModel>
  </diagram>
</mxfile>
